<?xml version="1.0" encoding="UTF-8" standalone="no"?>
<svg
   xmlns:dc="http://purl.org/dc/elements/1.1/"
   xmlns:cc="http://creativecommons.org/ns#"
   xmlns:rdf="http://www.w3.org/1999/02/22-rdf-syntax-ns#"
   xmlns:svg="http://www.w3.org/2000/svg"
   xmlns="http://www.w3.org/2000/svg"
   xmlns:sodipodi="http://sodipodi.sourceforge.net/DTD/sodipodi-0.dtd"
   xmlns:inkscape="http://www.inkscape.org/namespaces/inkscape"
   width="19.005732mm"
   height="5.8341942mm"
   viewBox="0 0 19.005733 5.8341942"
   version="1.1"
   id="svg8"
   inkscape:version="1.0.1 (3bc2e813f5, 2020-09-07)"
   sodipodi:docname="wave.svg">
  <defs
     id="defs2">
    <clipPath
       clipPathUnits="userSpaceOnUse"
       id="clipPath1491">
      <rect
         style="fill:none;fill-opacity:1;stroke:#a80765;stroke-width:0.0259043;stroke-miterlimit:4;stroke-dasharray:none;stroke-opacity:1"
         id="rect1493"
         width="6.4644976"
         height="1.7529663"
         x="113.33633"
         y="10.085983" />
    </clipPath>
  </defs>
  <sodipodi:namedview
     id="base"
     pagecolor="#ffffff"
     bordercolor="#666666"
     borderopacity="1.0"
     inkscape:pageopacity="0.0"
     inkscape:pageshadow="2"
     inkscape:zoom="4.6421913"
     inkscape:cx="53.36222"
     inkscape:cy="1.0175097"
     inkscape:document-units="mm"
     inkscape:current-layer="layer1"
     inkscape:document-rotation="0"
     showgrid="false"
     inkscape:window-width="1366"
     inkscape:window-height="768"
     inkscape:window-x="0"
     inkscape:window-y="0"
     inkscape:window-maximized="1"
     fit-margin-top="0"
     fit-margin-left="0"
     fit-margin-right="0"
     fit-margin-bottom="0" />
  <metadata
     id="metadata5">
    <rdf:RDF>
      <cc:Work
         rdf:about="">
        <dc:format>image/svg+xml</dc:format>
        <dc:type
           rdf:resource="http://purl.org/dc/dcmitype/StillImage" />
        <dc:title></dc:title>
      </cc:Work>
    </rdf:RDF>
  </metadata>
  <g
     inkscape:label="Layer 1"
     inkscape:groupmode="layer"
     id="layer1"
     transform="translate(44.764356,-69.589539)">
    <g
       id="g1614"
       transform="matrix(1.2690263,0,0,1,18.044376,-4.499444)"
       style="fill:#a80765;fill-opacity:1">
      <path
         style="fill:#a80765;fill-opacity:1;stroke-width:0.0137023"
         d="m -45.557653,74.090408 c 2.168561,-0.0019 5.717116,-0.0019 7.885677,0 2.168562,0.0019 0.394284,0.0035 -3.942838,0.0035 -4.337123,0 -6.111401,-0.0016 -3.942839,-0.0035 z"
         id="path1628" />
      <path
         style="fill:#a80765;fill-opacity:1;stroke-width:0.0137023"
         d="m -49.209318,79.91509 c 0.0094,-0.0038 0.02484,-0.0038 0.03426,0 0.0094,0.0038 0.0017,0.0069 -0.01713,0.0069 -0.01884,0 -0.02655,-0.0031 -0.01713,-0.0069 z m 14.470492,-2.85e-4 c 0.0099,-0.004 0.02171,-0.0035 0.02626,0.0011 0.0046,0.0046 -0.0035,0.0078 -0.01799,0.0072 -0.01596,-6.58e-4 -0.01921,-0.0039 -0.0083,-0.0083 z m -14.222994,-0.0137 c 0.0099,-0.004 0.02171,-0.0035 0.02626,0.0011 0.0046,0.0046 -0.0035,0.0078 -0.01798,0.0072 -0.01596,-6.58e-4 -0.01921,-0.0039 -0.0083,-0.0083 z m -0.281493,-1.000404 c 0.01333,-0.0035 0.03183,-0.0032 0.04111,5.09e-4 0.0093,0.0038 -0.0016,0.0066 -0.02424,0.0063 -0.02261,-2.79e-4 -0.0302,-0.0033 -0.01687,-0.0068 z m 14.422274,1.37e-4 c 0.0099,-0.004 0.02171,-0.0035 0.02626,0.0011 0.0046,0.0046 -0.0035,0.0078 -0.01798,0.0072 -0.01596,-6.58e-4 -0.01921,-0.0039 -0.0083,-0.0083 z m -6.810047,-2.069048 c 0.0099,-0.004 0.02171,-0.0035 0.02626,0.0011 0.0046,0.0046 -0.0035,0.0078 -0.01798,0.0072 -0.01596,-6.58e-4 -0.01921,-0.0039 -0.0083,-0.0083 z m -0.767329,-1.01397 c 0.0099,-0.004 0.02171,-0.0035 0.02626,0.0011 0.0046,0.0046 -0.0035,0.0078 -0.01799,0.0072 -0.01596,-6.57e-4 -0.01921,-0.0039 -0.0083,-0.0083 z m 0.321148,-0.01441 c 0.0358,-0.0028 0.09437,-0.0028 0.130172,0 0.0358,0.0028 0.0065,0.0051 -0.06509,0.0051 -0.0716,0 -0.100884,-0.0023 -0.06509,-0.0051 z"
         id="path1626" />
      <path
         style="fill:#a80765;fill-opacity:1;stroke-width:0.0137023"
         d="m -49.249569,79.914804 c 0.0099,-0.004 0.02171,-0.0035 0.02626,0.0011 0.0046,0.0046 -0.0035,0.0078 -0.01798,0.0072 -0.01596,-6.58e-4 -0.01921,-0.0039 -0.0083,-0.0083 z m 14.55185,0 c 0.0099,-0.004 0.02171,-0.0035 0.02626,0.0011 0.0046,0.0046 -0.0035,0.0078 -0.01798,0.0072 -0.01596,-6.58e-4 -0.01921,-0.0039 -0.0083,-0.0083 z m -0.164427,-1.01397 c 0.0099,-0.004 0.02171,-0.0035 0.02626,0.0011 0.0046,0.0046 -0.0035,0.0078 -0.01798,0.0072 -0.01596,-6.57e-4 -0.01921,-0.0039 -0.0083,-0.0083 z m -6.727833,-2.069049 c 0.0099,-0.004 0.02171,-0.0035 0.02626,0.0011 0.0046,0.0046 -0.0035,0.0078 -0.01799,0.0072 -0.01596,-6.57e-4 -0.01921,-0.0039 -0.0083,-0.0083 z m -0.0137,-1.01397 c 0.0099,-0.004 0.02171,-0.0035 0.02626,0.0011 0.0046,0.0046 -0.0035,0.0078 -0.01798,0.0072 -0.01596,-6.58e-4 -0.01921,-0.0039 -0.0083,-0.0083 z"
         id="path1624" />
      <path
         style="fill:#a80765;fill-opacity:1;stroke-width:0.0137023"
         d="m -49.305234,79.91509 c 0.0094,-0.0038 0.02483,-0.0038 0.03426,0 0.0094,0.0038 0.0017,0.0069 -0.01713,0.0069 -0.01884,0 -0.02655,-0.0031 -0.01713,-0.0069 z m 14.661628,-6.17e-4 c 0.01704,-0.0033 0.04171,-0.0032 0.05481,2.77e-4 0.0131,0.0034 -8.5e-4,0.0061 -0.03099,0.006 -0.03014,-1.52e-4 -0.04086,-0.003 -0.02382,-0.0062 z m -0.287052,-0.01337 c 0.0099,-0.004 0.02171,-0.0035 0.02626,0.0011 0.0046,0.0046 -0.0035,0.0078 -0.01798,0.0072 -0.01596,-6.58e-4 -0.01921,-0.0039 -0.0083,-0.0083 z m 0.02741,-1.000269 c 0.0099,-0.004 0.02171,-0.0035 0.02626,0.0011 0.0046,0.0046 -0.0035,0.0078 -0.01798,0.0072 -0.01596,-6.58e-4 -0.01921,-0.0039 -0.0083,-0.0083 z m -7.467758,-2.069048 c 0.0099,-0.004 0.02171,-0.0035 0.02626,0.0011 0.0046,0.0046 -0.0035,0.0078 -0.01798,0.0072 -0.01596,-6.58e-4 -0.01921,-0.0039 -0.0083,-0.0083 z m 0.369106,-0.01438 c 0.03203,-0.0029 0.08444,-0.0029 0.11647,0 0.03203,0.0029 0.0058,0.0052 -0.05823,0.0052 -0.06406,0 -0.09026,-0.0024 -0.05824,-0.0052 z m -0.533533,-0.985893 c 0.0099,-0.004 0.02171,-0.0035 0.02626,0.0011 0.0046,0.0046 -0.0035,0.0078 -0.01799,0.0072 -0.01596,-6.58e-4 -0.01921,-0.0039 -0.0083,-0.0083 z m 1.096184,0 c 0.0099,-0.004 0.02171,-0.0035 0.02626,0.0011 0.0046,0.0046 -0.0035,0.0078 -0.01798,0.0072 -0.01596,-6.58e-4 -0.01921,-0.0039 -0.0083,-0.0083 z M -42.33076,75.8181 c 0.0094,-0.0038 0.02483,-0.0038 0.03426,0 0.0094,0.0038 0.0017,0.0069 -0.01713,0.0069 -0.01884,0 -0.02655,-0.0031 -0.01713,-0.0069 z m 0.685972,-2.85e-4 c 0.0099,-0.004 0.02171,-0.0035 0.02626,0.0011 0.0046,0.0046 -0.0035,0.0078 -0.01799,0.0072 -0.01596,-6.58e-4 -0.01921,-0.0039 -0.0083,-0.0083 z"
         id="path1622" />
      <path
         style="fill:#a80765;fill-opacity:1;stroke-width:0.0137023"
         d="m -49.456265,79.914275 c 0.02433,-0.003 0.06749,-0.0031 0.09592,-1.1e-4 0.02843,0.003 0.0085,0.0054 -0.04423,0.0055 -0.05275,6.1e-5 -0.07601,-0.0024 -0.05169,-0.0054 z m 14.894713,8.15e-4 c 0.0094,-0.0038 0.02483,-0.0038 0.03426,0 0.0094,0.0038 0.0017,0.0069 -0.01713,0.0069 -0.01884,0 -0.02655,-0.0031 -0.01713,-0.0069 z M -49.057736,79.9011 c 0.0099,-0.004 0.02171,-0.0035 0.02626,0.0011 0.0046,0.0046 -0.0035,0.0078 -0.01798,0.0072 -0.01596,-6.58e-4 -0.01921,-0.0039 -0.0083,-0.0083 z m 14.168185,0 c 0.0099,-0.004 0.02171,-0.0035 0.02626,0.0011 0.0046,0.0046 -0.0035,0.0078 -0.01798,0.0072 -0.01596,-6.58e-4 -0.01921,-0.0039 -0.0083,-0.0083 z m 0.245785,-0.987118 c 0.02449,-0.003 0.06457,-0.003 0.08906,0 0.02449,0.003 0.0045,0.0055 -0.04453,0.0055 -0.04899,0 -0.06903,-0.0025 -0.04453,-0.0055 z m -0.300594,-0.01315 c 0.0099,-0.004 0.02171,-0.0035 0.02626,0.0011 0.0046,0.0046 -0.0035,0.0078 -0.01798,0.0072 -0.01596,-6.57e-4 -0.01921,-0.0039 -0.0083,-0.0083 z m -7.180706,-2.083082 c 0.01704,-0.0033 0.04171,-0.0032 0.05481,2.77e-4 0.0131,0.0034 -8.46e-4,0.0061 -0.03099,0.006 -0.03014,-1.52e-4 -0.04086,-0.003 -0.02382,-0.0062 z m 0.315153,0 c 0.01705,-0.0033 0.04171,-0.0032 0.05481,2.77e-4 0.0131,0.0034 -8.46e-4,0.0061 -0.03099,0.006 -0.03014,-1.52e-4 -0.04086,-0.003 -0.02382,-0.0062 z m -0.465181,-0.999937 c 0.0099,-0.004 0.02171,-0.0035 0.02626,0.0011 0.0046,0.0046 -0.0035,0.0078 -0.01798,0.0072 -0.01596,-6.58e-4 -0.01921,-0.0039 -0.0083,-0.0083 z"
         id="path1620" />
      <path
         style="fill:#a80765;fill-opacity:1;stroke-width:0.0137023"
         d="m -34.848444,79.901102 c 0.0099,-0.004 0.02171,-0.0035 0.02626,0.0011 0.0046,0.0046 -0.0035,0.0078 -0.01798,0.0072 -0.01596,-6.58e-4 -0.01921,-0.0039 -0.0083,-0.0083 z m -14.600404,-0.986701 c 0.01333,-0.0035 0.03183,-0.0032 0.04111,5.08e-4 0.0093,0.0038 -0.0016,0.0066 -0.02424,0.0063 -0.02261,-2.8e-4 -0.0302,-0.0034 -0.01687,-0.0068 z m 7.248521,-2.096453 c 0.01333,-0.0035 0.03183,-0.0032 0.04111,5.08e-4 0.0093,0.0038 -0.0016,0.0066 -0.02424,0.0063 -0.02261,-2.8e-4 -0.0302,-0.0033 -0.01687,-0.0068 z m -0.03366,-1.000133 c 0.0099,-0.004 0.02171,-0.0035 0.02626,0.0011 0.0046,0.0046 -0.0035,0.0078 -0.01798,0.0072 -0.01596,-6.58e-4 -0.01921,-0.0039 -0.0083,-0.0083 z"
         id="path1618" />
      <path
         style="fill:#a80765;fill-opacity:1;stroke-width:0.0137023"
         d="m -49.493641,79.421243 v -0.49353 l 0.07194,-0.0086 c 0.03957,-0.0048 0.118183,-0.0087 0.174705,-0.0088 0.253375,-4.1e-4 0.663654,-0.05948 0.957189,-0.137819 0.600985,-0.160387 1.084233,-0.438596 1.796974,-1.034534 1.080642,-0.903545 1.819936,-1.363129 2.623733,-1.631047 1.145914,-0.381952 2.592464,-0.388655 3.720435,-0.01724 0.770751,0.253791 1.391929,0.625285 2.301988,1.376701 0.154493,0.127562 0.348724,0.287842 0.431623,0.356178 0.314103,0.258923 0.578827,0.447457 0.83584,0.595279 0.542429,0.311979 1.112518,0.465107 1.860088,0.499628 l 0.20211,0.0093 v 0.491859 0.491858 l -0.119896,-1.83e-4 c -0.16577,-2.55e-4 -0.561994,-0.03425 -0.787014,-0.06753 -0.8493,-0.125589 -1.601103,-0.428262 -2.372551,-0.95518 -0.290922,-0.198707 -0.787836,-0.578976 -1.18064,-0.9035 -0.684652,-0.565639 -1.127653,-0.826561 -1.692235,-0.996704 -0.565119,-0.170305 -1.343864,-0.217716 -2.034793,-0.12388 -0.769778,0.104544 -1.429302,0.410962 -2.102563,0.976862 -0.04104,0.0345 -0.15944,0.137326 -0.263107,0.228509 -0.261056,0.229617 -0.810213,0.646376 -1.162674,0.882361 -0.912841,0.611179 -1.877338,0.91982 -2.983677,0.954783 l -0.277472,0.0088 z"
         id="path1616" />
    </g>
  </g>
  <style
     type="text/css"
     id="style956">
	.st0{fill:#70B343;}
</style>
  <style
     type="text/css"
     id="style956-6">
	.st0{fill:#70B343;}
</style>
  <style
     type="text/css"
     id="style1524">
	.st0{fill:#70B343;}
</style>
</svg>
